{
	"asset":{
		"generator":"Khronos glTF Blender I/O v4.1.63",
		"version":"2.0"
	},
	"scene":0,
	"scenes":[
		{
			"name":"Scene",
			"nodes":[
				0,
				1,
				2,
				3,
				4,
				5,
				6,
				7,
				8,
				9,
				10,
				11,
				12,
				13,
				14,
				15,
				16
			]
		}
	],
	"nodes":[
		{
			"mesh":0,
			"name":"\u7acb\u65b9\u4f53",
			"scale":[
				1.9867759943008423,
				1.9867759943008423,
				1.9867759943008423
			],
			"translation":[
				0,
				2.736872434616089,
				0
			]
		},
		{
			"mesh":1,
			"name":"\u7acb\u65b9\u4f53.001",
			"scale":[
				11.208885192871094,
				0.7390053272247314,
				0.42109858989715576
			],
			"translation":[
				-0.771424412727356,
				0.8072472810745239,
				-37.79630661010742
			]
		},
		{
			"mesh":2,
			"name":"\u5186\u67f1",
			"rotation":[
				0,
				-0.18019524216651917,
				0,
				0.9836309552192688
			],
			"scale":[
				0.3333333134651184,
				1,
				0.3333333134651184
			],
			"translation":[
				2.8183088302612305,
				0.97998046875,
				-17.344207763671875
			]
		},
		{
			"mesh":3,
			"name":"\u5186",
			"rotation":[
				0.6955320239067078,
				-0.12741726636886597,
				0.12741726636886597,
				0.6955320835113525
			],
			"scale":[
				0.20786899328231812,
				0.20786899328231812,
				0.20786899328231812
			],
			"translation":[
				2.8003196716308594,
				1.9918241500854492,
				-17.29734230041504
			]
		},
		{
			"mesh":4,
			"name":"\u7acb\u65b9\u4f53.002",
			"scale":[
				4.143887042999268,
				2.4782183170318604,
				4.143887042999268
			],
			"translation":[
				-7.2700419425964355,
				2.519348382949829,
				-26.405447006225586
			]
		},
		{
			"mesh":5,
			"name":"\u7acb\u65b9\u4f53.003",
			"scale":[
				2.157569646835327,
				0.8518060445785522,
				2.2284257411956787
			],
			"translation":[
				-3.435797691345215,
				2.419980764389038,
				-26.54800796508789
			]
		},
		{
			"mesh":6,
			"name":"\u5186\u67f1.001",
			"scale":[
				0.2195025533437729,
				0.8698685169219971,
				0.2195025533437729
			],
			"translation":[
				-2.67116117477417,
				0.932905912399292,
				-29.061809539794922
			]
		},
		{
			"mesh":7,
			"name":"\u7acb\u65b9\u4f53.004",
			"rotation":[
				0,
				-0.7071068286895752,
				0,
				0.7071068286895752
			],
			"scale":[
				0.9633565545082092,
				2.2119944095611572,
				0.3013753890991211
			],
			"translation":[
				-2.5116047859191895,
				1.2109417915344238,
				-29.07068634033203
			]
		},
		{
			"mesh":8,
			"name":"\u5186\u67f1.002",
			"scale":[
				0.2195025533437729,
				0.8698685169219971,
				0.2195025533437729
			],
			"translation":[
				-2.67116117477417,
				0.932905912399292,
				-29.716602325439453
			]
		},
		{
			"mesh":9,
			"name":"\u7acb\u65b9\u4f53.005",
			"rotation":[
				0,
				-0.7071068286895752,
				0,
				0.7071068286895752
			],
			"scale":[
				0.9633565545082092,
				2.2119944095611572,
				0.3013753890991211
			],
			"translation":[
				-2.5116047859191895,
				1.2109417915344238,
				-29.725479125976562
			]
		},
		{
			"mesh":10,
			"name":"\u7acb\u65b9\u4f53.006",
			"rotation":[
				0,
				-1,
				0,
				4.0133929246621847e-07
			],
			"scale":[
				3.5999999046325684,
				1.600000023841858,
				1.25
			],
			"translation":[
				6.2677154541015625,
				1.7107588052749634,
				-21.045364379882812
			]
		},
		{
			"mesh":11,
			"name":"\u5186\u67f1.003",
			"scale":[
				0.2195025533437729,
				0.8698685169219971,
				0.2195025533437729
			],
			"translation":[
				-2.67116117477417,
				0.932905912399292,
				-22.661039352416992
			]
		},
		{
			"mesh":12,
			"name":"\u7acb\u65b9\u4f53.007",
			"rotation":[
				0,
				-0.7071068286895752,
				0,
				0.7071068286895752
			],
			"scale":[
				0.9633565545082092,
				2.2119944095611572,
				0.3013753890991211
			],
			"translation":[
				-2.5116047859191895,
				1.2109417915344238,
				-22.6699161529541
			]
		},
		{
			"mesh":13,
			"name":"\u5186\u67f1.004",
			"scale":[
				0.2195025533437729,
				0.8698685169219971,
				0.2195025533437729
			],
			"translation":[
				-2.67116117477417,
				0.932905912399292,
				-23.772178649902344
			]
		},
		{
			"mesh":14,
			"name":"\u7acb\u65b9\u4f53.008",
			"rotation":[
				0,
				-0.7071068286895752,
				0,
				0.7071068286895752
			],
			"scale":[
				0.9633565545082092,
				2.2119944095611572,
				0.3013753890991211
			],
			"translation":[
				-2.5116047859191895,
				1.2109417915344238,
				-23.781055450439453
			]
		},
		{
			"mesh":15,
			"name":"\u7acb\u65b9\u4f53.009",
			"scale":[
				0.18431422114372253,
				0.08995861560106277,
				0.09206166118383408
			],
			"translation":[
				0.006865613162517548,
				1.2300719022750854,
				-37.37519454956055
			]
		},
		{
			"mesh":16,
			"name":"\u7acb\u65b9\u4f53.010",
			"rotation":[
				-0.7071068286895752,
				0,
				0,
				0.7071068286895752
			],
			"scale":[
				0.13276660442352295,
				0.12763270735740662,
				0.08275040984153748
			],
			"translation":[
				0.006865613162517548,
				1.18858003616333,
				-37.28239440917969
			]
		}
	],
	"meshes":[
		{
			"name":"\u7acb\u65b9\u4f53",
			"primitives":[
				{
					"attributes":{
						"POSITION":0,
						"NORMAL":1,
						"TEXCOORD_0":2
					},
					"indices":3
				}
			]
		},
		{
			"name":"\u7acb\u65b9\u4f53.001",
			"primitives":[
				{
					"attributes":{
						"POSITION":4,
						"NORMAL":5,
						"TEXCOORD_0":6
					},
					"indices":7
				}
			]
		},
		{
			"name":"\u5186\u67f1",
			"primitives":[
				{
					"attributes":{
						"POSITION":8,
						"NORMAL":9,
						"TEXCOORD_0":10
					},
					"indices":11
				}
			]
		},
		{
			"name":"\u5186",
			"primitives":[
				{
					"attributes":{
						"POSITION":12,
						"NORMAL":13,
						"TEXCOORD_0":14
					},
					"indices":15
				}
			]
		},
		{
			"name":"\u7acb\u65b9\u4f53.002",
			"primitives":[
				{
					"attributes":{
						"POSITION":16,
						"NORMAL":17,
						"TEXCOORD_0":18
					},
					"indices":19
				}
			]
		},
		{
			"name":"\u7acb\u65b9\u4f53.003",
			"primitives":[
				{
					"attributes":{
						"POSITION":20,
						"NORMAL":21,
						"TEXCOORD_0":22
					},
					"indices":23
				}
			]
		},
		{
			"name":"\u5186\u67f1.001",
			"primitives":[
				{
					"attributes":{
						"POSITION":24,
						"NORMAL":25,
						"TEXCOORD_0":26
					},
					"indices":11
				}
			]
		},
		{
			"name":"\u7acb\u65b9\u4f53.005",
			"primitives":[
				{
					"attributes":{
						"POSITION":27,
						"NORMAL":28,
						"TEXCOORD_0":29
					},
					"indices":30
				}
			]
		},
		{
			"name":"\u5186\u67f1.002",
			"primitives":[
				{
					"attributes":{
						"POSITION":31,
						"NORMAL":32,
						"TEXCOORD_0":33
					},
					"indices":11
				}
			]
		},
		{
			"name":"\u7acb\u65b9\u4f53.006",
			"primitives":[
				{
					"attributes":{
						"POSITION":34,
						"NORMAL":35,
						"TEXCOORD_0":36
					},
					"indices":30
				}
			]
		},
		{
			"name":"\u7acb\u65b9\u4f53.007",
			"primitives":[
				{
					"attributes":{
						"POSITION":37,
						"NORMAL":38,
						"TEXCOORD_0":39
					},
					"indices":40
				}
			]
		},
		{
			"name":"\u5186\u67f1.003",
			"primitives":[
				{
					"attributes":{
						"POSITION":41,
						"NORMAL":42,
						"TEXCOORD_0":43
					},
					"indices":11
				}
			]
		},
		{
			"name":"\u7acb\u65b9\u4f53.004",
			"primitives":[
				{
					"attributes":{
						"POSITION":44,
						"NORMAL":45,
						"TEXCOORD_0":46
					},
					"indices":47
				}
			]
		},
		{
			"name":"\u5186\u67f1.004",
			"primitives":[
				{
					"attributes":{
						"POSITION":48,
						"NORMAL":49,
						"TEXCOORD_0":50
					},
					"indices":11
				}
			]
		},
		{
			"name":"\u7acb\u65b9\u4f53.008",
			"primitives":[
				{
					"attributes":{
						"POSITION":51,
						"NORMAL":52,
						"TEXCOORD_0":53
					},
					"indices":30
				}
			]
		},
		{
			"name":"\u7acb\u65b9\u4f53.009",
			"primitives":[
				{
					"attributes":{
						"POSITION":54,
						"NORMAL":55,
						"TEXCOORD_0":56
					},
					"indices":40
				}
			]
		},
		{
			"name":"\u7acb\u65b9\u4f53.010",
			"primitives":[
				{
					"attributes":{
						"POSITION":57,
						"NORMAL":58,
						"TEXCOORD_0":59
					},
					"indices":60
				}
			]
		}
	],
	"accessors":[
		{
			"bufferView":0,
			"componentType":5126,
			"count":16,
			"max":[
				1.4628671407699585,
				1.5439627170562744,
				0.7192730903625488
			],
			"min":[
				-1.4628671407699585,
				-1.3817715644836426,
				-8.29002857208252
			],
			"type":"VEC3"
		},
		{
			"bufferView":1,
			"componentType":5126,
			"count":16,
			"type":"VEC3"
		},
		{
			"bufferView":2,
			"componentType":5126,
			"count":16,
			"type":"VEC2"
		},
		{
			"bufferView":3,
			"componentType":5123,
			"count":24,
			"type":"SCALAR"
		},
		{
			"bufferView":4,
			"componentType":5126,
			"count":48,
			"max":[
				0.5043512582778931,
				1,
				1
			],
			"min":[
				-1,
				-1,
				-1
			],
			"type":"VEC3"
		},
		{
			"bufferView":5,
			"componentType":5126,
			"count":48,
			"type":"VEC3"
		},
		{
			"bufferView":6,
			"componentType":5126,
			"count":48,
			"type":"VEC2"
		},
		{
			"bufferView":7,
			"componentType":5123,
			"count":72,
			"type":"SCALAR"
		},
		{
			"bufferView":8,
			"componentType":5126,
			"count":192,
			"max":[
				0.15000000596046448,
				1,
				0.15000000596046448
			],
			"min":[
				-0.15000000596046448,
				-1,
				-0.15000000596046448
			],
			"type":"VEC3"
		},
		{
			"bufferView":9,
			"componentType":5126,
			"count":192,
			"type":"VEC3"
		},
		{
			"bufferView":10,
			"componentType":5126,
			"count":192,
			"type":"VEC2"
		},
		{
			"bufferView":11,
			"componentType":5123,
			"count":372,
			"type":"SCALAR"
		},
		{
			"bufferView":12,
			"componentType":5126,
			"count":32,
			"max":[
				1,
				0,
				1
			],
			"min":[
				-1,
				0,
				-1
			],
			"type":"VEC3"
		},
		{
			"bufferView":13,
			"componentType":5126,
			"count":32,
			"type":"VEC3"
		},
		{
			"bufferView":14,
			"componentType":5126,
			"count":32,
			"type":"VEC2"
		},
		{
			"bufferView":15,
			"componentType":5123,
			"count":90,
			"type":"SCALAR"
		},
		{
			"bufferView":16,
			"componentType":5126,
			"count":56,
			"max":[
				1.0092251300811768,
				0.4679824113845825,
				1.0092251300811768
			],
			"min":[
				-1.0092251300811768,
				-1,
				-1.0092251300811768
			],
			"type":"VEC3"
		},
		{
			"bufferView":17,
			"componentType":5126,
			"count":56,
			"type":"VEC3"
		},
		{
			"bufferView":18,
			"componentType":5126,
			"count":56,
			"type":"VEC2"
		},
		{
			"bufferView":19,
			"componentType":5123,
			"count":84,
			"type":"SCALAR"
		},
		{
			"bufferView":20,
			"componentType":5126,
			"count":4,
			"max":[
				0,
				0.2583739757537842,
				0.5047907829284668
			],
			"min":[
				0,
				-0.2583739161491394,
				-0.5047907829284668
			],
			"type":"VEC3"
		},
		{
			"bufferView":21,
			"componentType":5126,
			"count":4,
			"type":"VEC3"
		},
		{
			"bufferView":22,
			"componentType":5126,
			"count":4,
			"type":"VEC2"
		},
		{
			"bufferView":23,
			"componentType":5123,
			"count":6,
			"type":"SCALAR"
		},
		{
			"bufferView":24,
			"componentType":5126,
			"count":192,
			"max":[
				0.15000000596046448,
				1,
				0.15000000596046448
			],
			"min":[
				-0.15000000596046448,
				-1,
				-0.15000000596046448
			],
			"type":"VEC3"
		},
		{
			"bufferView":25,
			"componentType":5126,
			"count":192,
			"type":"VEC3"
		},
		{
			"bufferView":26,
			"componentType":5126,
			"count":192,
			"type":"VEC2"
		},
		{
			"bufferView":27,
			"componentType":5126,
			"count":120,
			"max":[
				0.033629946410655975,
				0.2583739757537842,
				0.5058881640434265
			],
			"min":[
				0,
				-0.2818584144115448,
				-0.5047907829284668
			],
			"type":"VEC3"
		},
		{
			"bufferView":28,
			"componentType":5126,
			"count":120,
			"type":"VEC3"
		},
		{
			"bufferView":29,
			"componentType":5126,
			"count":120,
			"type":"VEC2"
		},
		{
			"bufferView":30,
			"componentType":5123,
			"count":330,
			"type":"SCALAR"
		},
		{
			"bufferView":31,
			"componentType":5126,
			"count":192,
			"max":[
				0.15000000596046448,
				1,
				0.15000000596046448
			],
			"min":[
				-0.15000000596046448,
				-1,
				-0.15000000596046448
			],
			"type":"VEC3"
		},
		{
			"bufferView":32,
			"componentType":5126,
			"count":192,
			"type":"VEC3"
		},
		{
			"bufferView":33,
			"componentType":5126,
			"count":192,
			"type":"VEC2"
		},
		{
			"bufferView":34,
			"componentType":5126,
			"count":120,
			"max":[
				0.033629946410655975,
				0.2583739757537842,
				0.5058881640434265
			],
			"min":[
				0,
				-0.2818584144115448,
				-0.5047907829284668
			],
			"type":"VEC3"
		},
		{
			"bufferView":35,
			"componentType":5126,
			"count":120,
			"type":"VEC3"
		},
		{
			"bufferView":36,
			"componentType":5126,
			"count":120,
			"type":"VEC2"
		},
		{
			"bufferView":37,
			"componentType":5126,
			"count":24,
			"max":[
				1,
				1,
				1
			],
			"min":[
				-1,
				-1,
				-1
			],
			"type":"VEC3"
		},
		{
			"bufferView":38,
			"componentType":5126,
			"count":24,
			"type":"VEC3"
		},
		{
			"bufferView":39,
			"componentType":5126,
			"count":24,
			"type":"VEC2"
		},
		{
			"bufferView":40,
			"componentType":5123,
			"count":36,
			"type":"SCALAR"
		},
		{
			"bufferView":41,
			"componentType":5126,
			"count":192,
			"max":[
				0.15000000596046448,
				1,
				0.15000000596046448
			],
			"min":[
				-0.15000000596046448,
				-1,
				-0.15000000596046448
			],
			"type":"VEC3"
		},
		{
			"bufferView":42,
			"componentType":5126,
			"count":192,
			"type":"VEC3"
		},
		{
			"bufferView":43,
			"componentType":5126,
			"count":192,
			"type":"VEC2"
		},
		{
			"bufferView":44,
			"componentType":5126,
			"count":120,
			"max":[
				0.03362926468253136,
				0.2583739757537842,
				0.5047907829284668
			],
			"min":[
				0,
				-0.2575641870498657,
				-0.5475117564201355
			],
			"type":"VEC3"
		},
		{
			"bufferView":45,
			"componentType":5126,
			"count":120,
			"type":"VEC3"
		},
		{
			"bufferView":46,
			"componentType":5126,
			"count":120,
			"type":"VEC2"
		},
		{
			"bufferView":47,
			"componentType":5123,
			"count":330,
			"type":"SCALAR"
		},
		{
			"bufferView":48,
			"componentType":5126,
			"count":192,
			"max":[
				0.15000000596046448,
				1,
				0.15000000596046448
			],
			"min":[
				-0.15000000596046448,
				-1,
				-0.15000000596046448
			],
			"type":"VEC3"
		},
		{
			"bufferView":49,
			"componentType":5126,
			"count":192,
			"type":"VEC3"
		},
		{
			"bufferView":50,
			"componentType":5126,
			"count":192,
			"type":"VEC2"
		},
		{
			"bufferView":51,
			"componentType":5126,
			"count":120,
			"max":[
				0.033629946410655975,
				0.2583739757537842,
				0.5058881640434265
			],
			"min":[
				0,
				-0.2818584144115448,
				-0.5047907829284668
			],
			"type":"VEC3"
		},
		{
			"bufferView":52,
			"componentType":5126,
			"count":120,
			"type":"VEC3"
		},
		{
			"bufferView":53,
			"componentType":5126,
			"count":120,
			"type":"VEC2"
		},
		{
			"bufferView":54,
			"componentType":5126,
			"count":24,
			"max":[
				1,
				1,
				1
			],
			"min":[
				-1,
				-1,
				-1
			],
			"type":"VEC3"
		},
		{
			"bufferView":55,
			"componentType":5126,
			"count":24,
			"type":"VEC3"
		},
		{
			"bufferView":56,
			"componentType":5126,
			"count":24,
			"type":"VEC2"
		},
		{
			"bufferView":57,
			"componentType":5126,
			"count":144,
			"max":[
				0.9993040561676025,
				0.9972408413887024,
				0.21441341936588287
			],
			"min":[
				-1.0118041038513184,
				-1.073478102684021,
				-0.022898465394973755
			],
			"type":"VEC3"
		},
		{
			"bufferView":58,
			"componentType":5126,
			"count":144,
			"type":"VEC3"
		},
		{
			"bufferView":59,
			"componentType":5126,
			"count":144,
			"type":"VEC2"
		},
		{
			"bufferView":60,
			"componentType":5123,
			"count":216,
			"type":"SCALAR"
		}
	],
	"bufferViews":[
		{
			"buffer":0,
			"byteLength":192,
			"byteOffset":0,
			"target":34962
		},
		{
			"buffer":0,
			"byteLength":192,
			"byteOffset":192,
			"target":34962
		},
		{
			"buffer":0,
			"byteLength":128,
			"byteOffset":384,
			"target":34962
		},
		{
			"buffer":0,
			"byteLength":48,
			"byteOffset":512,
			"target":34963
		},
		{
			"buffer":0,
			"byteLength":576,
			"byteOffset":560,
			"target":34962
		},
		{
			"buffer":0,
			"byteLength":576,
			"byteOffset":1136,
			"target":34962
		},
		{
			"buffer":0,
			"byteLength":384,
			"byteOffset":1712,
			"target":34962
		},
		{
			"buffer":0,
			"byteLength":144,
			"byteOffset":2096,
			"target":34963
		},
		{
			"buffer":0,
			"byteLength":2304,
			"byteOffset":2240,
			"target":34962
		},
		{
			"buffer":0,
			"byteLength":2304,
			"byteOffset":4544,
			"target":34962
		},
		{
			"buffer":0,
			"byteLength":1536,
			"byteOffset":6848,
			"target":34962
		},
		{
			"buffer":0,
			"byteLength":744,
			"byteOffset":8384,
			"target":34963
		},
		{
			"buffer":0,
			"byteLength":384,
			"byteOffset":9128,
			"target":34962
		},
		{
			"buffer":0,
			"byteLength":384,
			"byteOffset":9512,
			"target":34962
		},
		{
			"buffer":0,
			"byteLength":256,
			"byteOffset":9896,
			"target":34962
		},
		{
			"buffer":0,
			"byteLength":180,
			"byteOffset":10152,
			"target":34963
		},
		{
			"buffer":0,
			"byteLength":672,
			"byteOffset":10332,
			"target":34962
		},
		{
			"buffer":0,
			"byteLength":672,
			"byteOffset":11004,
			"target":34962
		},
		{
			"buffer":0,
			"byteLength":448,
			"byteOffset":11676,
			"target":34962
		},
		{
			"buffer":0,
			"byteLength":168,
			"byteOffset":12124,
			"target":34963
		},
		{
			"buffer":0,
			"byteLength":48,
			"byteOffset":12292,
			"target":34962
		},
		{
			"buffer":0,
			"byteLength":48,
			"byteOffset":12340,
			"target":34962
		},
		{
			"buffer":0,
			"byteLength":32,
			"byteOffset":12388,
			"target":34962
		},
		{
			"buffer":0,
			"byteLength":12,
			"byteOffset":12420,
			"target":34963
		},
		{
			"buffer":0,
			"byteLength":2304,
			"byteOffset":12432,
			"target":34962
		},
		{
			"buffer":0,
			"byteLength":2304,
			"byteOffset":14736,
			"target":34962
		},
		{
			"buffer":0,
			"byteLength":1536,
			"byteOffset":17040,
			"target":34962
		},
		{
			"buffer":0,
			"byteLength":1440,
			"byteOffset":18576,
			"target":34962
		},
		{
			"buffer":0,
			"byteLength":1440,
			"byteOffset":20016,
			"target":34962
		},
		{
			"buffer":0,
			"byteLength":960,
			"byteOffset":21456,
			"target":34962
		},
		{
			"buffer":0,
			"byteLength":660,
			"byteOffset":22416,
			"target":34963
		},
		{
			"buffer":0,
			"byteLength":2304,
			"byteOffset":23076,
			"target":34962
		},
		{
			"buffer":0,
			"byteLength":2304,
			"byteOffset":25380,
			"target":34962
		},
		{
			"buffer":0,
			"byteLength":1536,
			"byteOffset":27684,
			"target":34962
		},
		{
			"buffer":0,
			"byteLength":1440,
			"byteOffset":29220,
			"target":34962
		},
		{
			"buffer":0,
			"byteLength":1440,
			"byteOffset":30660,
			"target":34962
		},
		{
			"buffer":0,
			"byteLength":960,
			"byteOffset":32100,
			"target":34962
		},
		{
			"buffer":0,
			"byteLength":288,
			"byteOffset":33060,
			"target":34962
		},
		{
			"buffer":0,
			"byteLength":288,
			"byteOffset":33348,
			"target":34962
		},
		{
			"buffer":0,
			"byteLength":192,
			"byteOffset":33636,
			"target":34962
		},
		{
			"buffer":0,
			"byteLength":72,
			"byteOffset":33828,
			"target":34963
		},
		{
			"buffer":0,
			"byteLength":2304,
			"byteOffset":33900,
			"target":34962
		},
		{
			"buffer":0,
			"byteLength":2304,
			"byteOffset":36204,
			"target":34962
		},
		{
			"buffer":0,
			"byteLength":1536,
			"byteOffset":38508,
			"target":34962
		},
		{
			"buffer":0,
			"byteLength":1440,
			"byteOffset":40044,
			"target":34962
		},
		{
			"buffer":0,
			"byteLength":1440,
			"byteOffset":41484,
			"target":34962
		},
		{
			"buffer":0,
			"byteLength":960,
			"byteOffset":42924,
			"target":34962
		},
		{
			"buffer":0,
			"byteLength":660,
			"byteOffset":43884,
			"target":34963
		},
		{
			"buffer":0,
			"byteLength":2304,
			"byteOffset":44544,
			"target":34962
		},
		{
			"buffer":0,
			"byteLength":2304,
			"byteOffset":46848,
			"target":34962
		},
		{
			"buffer":0,
			"byteLength":1536,
			"byteOffset":49152,
			"target":34962
		},
		{
			"buffer":0,
			"byteLength":1440,
			"byteOffset":50688,
			"target":34962
		},
		{
			"buffer":0,
			"byteLength":1440,
			"byteOffset":52128,
			"target":34962
		},
		{
			"buffer":0,
			"byteLength":960,
			"byteOffset":53568,
			"target":34962
		},
		{
			"buffer":0,
			"byteLength":288,
			"byteOffset":54528,
			"target":34962
		},
		{
			"buffer":0,
			"byteLength":288,
			"byteOffset":54816,
			"target":34962
		},
		{
			"buffer":0,
			"byteLength":192,
			"byteOffset":55104,
			"target":34962
		},
		{
			"buffer":0,
			"byteLength":1728,
			"byteOffset":55296,
			"target":34962
		},
		{
			"buffer":0,
			"byteLength":1728,
			"byteOffset":57024,
			"target":34962
		},
		{
			"buffer":0,
			"byteLength":1152,
			"byteOffset":58752,
			"target":34962
		},
		{
			"buffer":0,
			"byteLength":432,
			"byteOffset":59904,
			"target":34963
		}
	],
	"buffers":[
		{
			"byteLength":60336,
			"uri":"Home.bin"
		}
	]
}
