{
	"asset":{
		"generator":"Khronos glTF Blender I/O v4.1.63",
		"version":"2.0"
	},
	"scene":0,
	"scenes":[
		{
			"name":"Scene",
			"nodes":[
				0,
				1,
				2,
				3,
				4,
				5,
				6,
				7,
				8,
				9,
				10,
				11,
				12,
				13,
				14,
				15,
				16,
				17,
				18
			]
		}
	],
	"nodes":[
		{
			"mesh":0,
			"name":"\u7acb\u65b9\u4f53",
			"scale":[
				1.9867759943008423,
				1.9867759943008423,
				1.9867759943008423
			],
			"translation":[
				0,
				2.7368721961975098,
				0
			]
		},
		{
			"mesh":1,
			"name":"\u7acb\u65b9\u4f53.001",
			"scale":[
				11.208885192871094,
				0.7390053272247314,
				0.42109858989715576
			],
			"translation":[
				-0.771424412727356,
				0.8072472810745239,
				-37.79630661010742
			]
		},
		{
			"mesh":2,
			"name":"\u5186\u67f1",
			"rotation":[
				0,
				0.2659015953540802,
				0,
				0.9640001654624939
			],
			"scale":[
				0.3333333134651184,
				1,
				0.3333333134651184
			],
			"translation":[
				2.7808778285980225,
				0.97998046875,
				-30.51721954345703
			]
		},
		{
			"mesh":3,
			"name":"\u5186",
			"rotation":[
				0.6816511154174805,
				0.18802084028720856,
				-0.18802084028720856,
				0.6816511154174805
			],
			"scale":[
				0.20786899328231812,
				0.20786899328231812,
				0.20786899328231812
			],
			"translation":[
				2.8064346313476562,
				1.9918241500854492,
				-30.474014282226562
			]
		},
		{
			"mesh":4,
			"name":"\u7acb\u65b9\u4f53.002",
			"scale":[
				4.143887042999268,
				2.4782183170318604,
				4.143887042999268
			],
			"translation":[
				-7.270041465759277,
				2.51934814453125,
				-26.405447006225586
			]
		},
		{
			"mesh":5,
			"name":"\u7acb\u65b9\u4f53.003",
			"scale":[
				2.157569646835327,
				0.8518060445785522,
				2.2284257411956787
			],
			"translation":[
				-3.435797929763794,
				2.419980525970459,
				-25.34957504272461
			]
		},
		{
			"mesh":6,
			"name":"\u5186\u67f1.001",
			"scale":[
				0.2195025533437729,
				0.8698685169219971,
				0.2195025533437729
			],
			"translation":[
				-2.67116117477417,
				0.932905912399292,
				-27.81170082092285
			]
		},
		{
			"mesh":7,
			"name":"\u7acb\u65b9\u4f53.004",
			"rotation":[
				0,
				-0.7071068286895752,
				0,
				0.7071068286895752
			],
			"scale":[
				0.9633565545082092,
				2.2119944095611572,
				0.3013753890991211
			],
			"translation":[
				-2.5116047859191895,
				1.2109417915344238,
				-27.82057762145996
			]
		},
		{
			"mesh":8,
			"name":"\u5186\u67f1.002",
			"scale":[
				0.2195025533437729,
				0.8698685169219971,
				0.2195025533437729
			],
			"translation":[
				-2.67116117477417,
				0.932905912399292,
				-28.466493606567383
			]
		},
		{
			"mesh":9,
			"name":"\u7acb\u65b9\u4f53.005",
			"rotation":[
				0,
				-0.7071068286895752,
				0,
				0.7071068286895752
			],
			"scale":[
				0.9633565545082092,
				2.2119944095611572,
				0.3013753890991211
			],
			"translation":[
				-2.5116047859191895,
				1.2109417915344238,
				-28.475370407104492
			]
		},
		{
			"mesh":10,
			"name":"\u7acb\u65b9\u4f53.006",
			"rotation":[
				-0.02217019721865654,
				-0.7067587971687317,
				-0.02217021770775318,
				0.706759512424469
			],
			"scale":[
				3.5999999046325684,
				1.600000023841858,
				1.25
			],
			"translation":[
				3.9637627601623535,
				1.5812900066375732,
				-22.954227447509766
			]
		},
		{
			"mesh":11,
			"name":"\u5186\u67f1.003",
			"scale":[
				0.2195025533437729,
				0.8698685169219971,
				0.2195025533437729
			],
			"translation":[
				-2.67116117477417,
				0.932905912399292,
				-21.410930633544922
			]
		},
		{
			"mesh":12,
			"name":"\u7acb\u65b9\u4f53.007",
			"rotation":[
				0,
				-0.7071068286895752,
				0,
				0.7071068286895752
			],
			"scale":[
				0.9633565545082092,
				2.2119944095611572,
				0.3013753890991211
			],
			"translation":[
				-2.5116047859191895,
				1.2109417915344238,
				-21.41980743408203
			]
		},
		{
			"mesh":13,
			"name":"\u5186\u67f1.004",
			"scale":[
				0.2195025533437729,
				0.8698685169219971,
				0.2195025533437729
			],
			"translation":[
				-2.67116117477417,
				0.932905912399292,
				-22.522069931030273
			]
		},
		{
			"mesh":14,
			"name":"\u7acb\u65b9\u4f53.008",
			"rotation":[
				0,
				-0.7071068286895752,
				0,
				0.7071068286895752
			],
			"scale":[
				0.9633565545082092,
				2.2119944095611572,
				0.3013753890991211
			],
			"translation":[
				-2.5116047859191895,
				1.2109417915344238,
				-22.530946731567383
			]
		},
		{
			"mesh":15,
			"name":"\u7acb\u65b9\u4f53.009",
			"scale":[
				0.18431422114372253,
				0.08995861560106277,
				0.09206166118383408
			],
			"translation":[
				0.0068656206130981445,
				1.2300719022750854,
				-37.37519454956055
			]
		},
		{
			"mesh":16,
			"name":"\u7acb\u65b9\u4f53.010",
			"rotation":[
				-0.5867050290107727,
				0,
				0,
				0.8098007440567017
			],
			"scale":[
				0.13276660442352295,
				0.12763270735740662,
				0.08275040984153748
			],
			"translation":[
				0.0068656206130981445,
				1.1767168045043945,
				-37.28239440917969
			]
		},
		{
			"mesh":17,
			"name":"\u5186\u67f1.005",
			"rotation":[
				0,
				0.8696719408035278,
				0,
				0.49363017082214355
			],
			"scale":[
				0.3333333134651184,
				1,
				0.3333333134651184
			],
			"translation":[
				-2.8467464447021484,
				0.97998046875,
				-15.190713882446289
			]
		},
		{
			"mesh":18,
			"name":"\u5e73\u9762",
			"rotation":[
				0.5,
				0.5,
				-0.5,
				0.5
			],
			"scale":[
				0.1349598914384842,
				0.6242089867591858,
				0.6242089867591858
			],
			"translation":[
				-2.746657371520996,
				1.0645085573196411,
				-15.206002235412598
			]
		}
	],
	"meshes":[
		{
			"name":"\u7acb\u65b9\u4f53",
			"primitives":[
				{
					"attributes":{
						"POSITION":0,
						"NORMAL":1,
						"TEXCOORD_0":2
					},
					"indices":3
				}
			]
		},
		{
			"name":"\u7acb\u65b9\u4f53.001",
			"primitives":[
				{
					"attributes":{
						"POSITION":4,
						"NORMAL":5,
						"TEXCOORD_0":6
					},
					"indices":7
				}
			]
		},
		{
			"name":"\u5186\u67f1",
			"primitives":[
				{
					"attributes":{
						"POSITION":8,
						"NORMAL":9,
						"TEXCOORD_0":10
					},
					"indices":11
				}
			]
		},
		{
			"name":"\u5186",
			"primitives":[
				{
					"attributes":{
						"POSITION":12,
						"NORMAL":13,
						"TEXCOORD_0":14
					},
					"indices":15
				}
			]
		},
		{
			"name":"\u7acb\u65b9\u4f53.002",
			"primitives":[
				{
					"attributes":{
						"POSITION":16,
						"NORMAL":17,
						"TEXCOORD_0":18
					},
					"indices":19
				}
			]
		},
		{
			"name":"\u7acb\u65b9\u4f53.003",
			"primitives":[
				{
					"attributes":{
						"POSITION":20,
						"NORMAL":21,
						"TEXCOORD_0":22
					},
					"indices":23
				}
			]
		},
		{
			"name":"\u5186\u67f1.001",
			"primitives":[
				{
					"attributes":{
						"POSITION":24,
						"NORMAL":25,
						"TEXCOORD_0":26
					},
					"indices":11
				}
			]
		},
		{
			"name":"\u7acb\u65b9\u4f53.005",
			"primitives":[
				{
					"attributes":{
						"POSITION":27,
						"NORMAL":28,
						"TEXCOORD_0":29
					},
					"indices":30
				}
			]
		},
		{
			"name":"\u5186\u67f1.002",
			"primitives":[
				{
					"attributes":{
						"POSITION":31,
						"NORMAL":32,
						"TEXCOORD_0":33
					},
					"indices":11
				}
			]
		},
		{
			"name":"\u7acb\u65b9\u4f53.006",
			"primitives":[
				{
					"attributes":{
						"POSITION":34,
						"NORMAL":35,
						"TEXCOORD_0":36
					},
					"indices":30
				}
			]
		},
		{
			"name":"\u7acb\u65b9\u4f53.007",
			"primitives":[
				{
					"attributes":{
						"POSITION":37,
						"NORMAL":38,
						"TEXCOORD_0":39
					},
					"indices":40
				}
			]
		},
		{
			"name":"\u5186\u67f1.003",
			"primitives":[
				{
					"attributes":{
						"POSITION":41,
						"NORMAL":42,
						"TEXCOORD_0":43
					},
					"indices":11
				}
			]
		},
		{
			"name":"\u7acb\u65b9\u4f53.004",
			"primitives":[
				{
					"attributes":{
						"POSITION":44,
						"NORMAL":45,
						"TEXCOORD_0":46
					},
					"indices":47
				}
			]
		},
		{
			"name":"\u5186\u67f1.004",
			"primitives":[
				{
					"attributes":{
						"POSITION":48,
						"NORMAL":49,
						"TEXCOORD_0":50
					},
					"indices":11
				}
			]
		},
		{
			"name":"\u7acb\u65b9\u4f53.008",
			"primitives":[
				{
					"attributes":{
						"POSITION":51,
						"NORMAL":52,
						"TEXCOORD_0":53
					},
					"indices":54
				}
			]
		},
		{
			"name":"\u7acb\u65b9\u4f53.009",
			"primitives":[
				{
					"attributes":{
						"POSITION":55,
						"NORMAL":56,
						"TEXCOORD_0":57
					},
					"indices":40
				}
			]
		},
		{
			"name":"\u7acb\u65b9\u4f53.010",
			"primitives":[
				{
					"attributes":{
						"POSITION":58,
						"NORMAL":59,
						"TEXCOORD_0":60
					},
					"indices":61
				}
			]
		},
		{
			"name":"\u5186\u67f1.005",
			"primitives":[
				{
					"attributes":{
						"POSITION":62,
						"NORMAL":63,
						"TEXCOORD_0":64
					},
					"indices":11
				}
			]
		},
		{
			"name":"\u5e73\u9762",
			"primitives":[
				{
					"attributes":{
						"POSITION":65,
						"NORMAL":66,
						"TEXCOORD_0":67
					},
					"indices":68
				}
			]
		}
	],
	"accessors":[
		{
			"bufferView":0,
			"componentType":5126,
			"count":145,
			"max":[
				1.4628673791885376,
				1.4220573902130127,
				0.7192732095718384
			],
			"min":[
				-1.462867259979248,
				-1.3817716836929321,
				-7.475536346435547
			],
			"type":"VEC3"
		},
		{
			"bufferView":1,
			"componentType":5126,
			"count":145,
			"type":"VEC3"
		},
		{
			"bufferView":2,
			"componentType":5126,
			"count":145,
			"type":"VEC2"
		},
		{
			"bufferView":3,
			"componentType":5123,
			"count":384,
			"type":"SCALAR"
		},
		{
			"bufferView":4,
			"componentType":5126,
			"count":48,
			"max":[
				0.5043512582778931,
				1,
				1
			],
			"min":[
				-1,
				-1,
				-1
			],
			"type":"VEC3"
		},
		{
			"bufferView":5,
			"componentType":5126,
			"count":48,
			"type":"VEC3"
		},
		{
			"bufferView":6,
			"componentType":5126,
			"count":48,
			"type":"VEC2"
		},
		{
			"bufferView":7,
			"componentType":5123,
			"count":72,
			"type":"SCALAR"
		},
		{
			"bufferView":8,
			"componentType":5126,
			"count":192,
			"max":[
				0.15000000596046448,
				1,
				0.15000000596046448
			],
			"min":[
				-0.15000000596046448,
				-1,
				-0.15000000596046448
			],
			"type":"VEC3"
		},
		{
			"bufferView":9,
			"componentType":5126,
			"count":192,
			"type":"VEC3"
		},
		{
			"bufferView":10,
			"componentType":5126,
			"count":192,
			"type":"VEC2"
		},
		{
			"bufferView":11,
			"componentType":5123,
			"count":372,
			"type":"SCALAR"
		},
		{
			"bufferView":12,
			"componentType":5126,
			"count":32,
			"max":[
				1,
				0,
				1
			],
			"min":[
				-1,
				0,
				-1
			],
			"type":"VEC3"
		},
		{
			"bufferView":13,
			"componentType":5126,
			"count":32,
			"type":"VEC3"
		},
		{
			"bufferView":14,
			"componentType":5126,
			"count":32,
			"type":"VEC2"
		},
		{
			"bufferView":15,
			"componentType":5123,
			"count":90,
			"type":"SCALAR"
		},
		{
			"bufferView":16,
			"componentType":5126,
			"count":56,
			"max":[
				1.0092251300811768,
				0.4679824113845825,
				1.5516659021377563
			],
			"min":[
				-1.0092251300811768,
				-1,
				-1.0092251300811768
			],
			"type":"VEC3"
		},
		{
			"bufferView":17,
			"componentType":5126,
			"count":56,
			"type":"VEC3"
		},
		{
			"bufferView":18,
			"componentType":5126,
			"count":56,
			"type":"VEC2"
		},
		{
			"bufferView":19,
			"componentType":5123,
			"count":84,
			"type":"SCALAR"
		},
		{
			"bufferView":20,
			"componentType":5126,
			"count":4,
			"max":[
				0,
				0.2583739757537842,
				0.5047907829284668
			],
			"min":[
				0,
				-0.2583739161491394,
				-0.5047907829284668
			],
			"type":"VEC3"
		},
		{
			"bufferView":21,
			"componentType":5126,
			"count":4,
			"type":"VEC3"
		},
		{
			"bufferView":22,
			"componentType":5126,
			"count":4,
			"type":"VEC2"
		},
		{
			"bufferView":23,
			"componentType":5123,
			"count":6,
			"type":"SCALAR"
		},
		{
			"bufferView":24,
			"componentType":5126,
			"count":192,
			"max":[
				0.15000000596046448,
				1,
				0.15000000596046448
			],
			"min":[
				-0.15000000596046448,
				-1,
				-0.15000000596046448
			],
			"type":"VEC3"
		},
		{
			"bufferView":25,
			"componentType":5126,
			"count":192,
			"type":"VEC3"
		},
		{
			"bufferView":26,
			"componentType":5126,
			"count":192,
			"type":"VEC2"
		},
		{
			"bufferView":27,
			"componentType":5126,
			"count":120,
			"max":[
				0.033629946410655975,
				0.2583739757537842,
				0.5058881640434265
			],
			"min":[
				0,
				-0.2818584144115448,
				-0.5047907829284668
			],
			"type":"VEC3"
		},
		{
			"bufferView":28,
			"componentType":5126,
			"count":120,
			"type":"VEC3"
		},
		{
			"bufferView":29,
			"componentType":5126,
			"count":120,
			"type":"VEC2"
		},
		{
			"bufferView":30,
			"componentType":5123,
			"count":330,
			"type":"SCALAR"
		},
		{
			"bufferView":31,
			"componentType":5126,
			"count":192,
			"max":[
				0.15000000596046448,
				1,
				0.15000000596046448
			],
			"min":[
				-0.15000000596046448,
				-1,
				-0.15000000596046448
			],
			"type":"VEC3"
		},
		{
			"bufferView":32,
			"componentType":5126,
			"count":192,
			"type":"VEC3"
		},
		{
			"bufferView":33,
			"componentType":5126,
			"count":192,
			"type":"VEC2"
		},
		{
			"bufferView":34,
			"componentType":5126,
			"count":120,
			"max":[
				0.033629946410655975,
				0.2583739757537842,
				0.5058881640434265
			],
			"min":[
				0,
				-0.2818584144115448,
				-0.5047907829284668
			],
			"type":"VEC3"
		},
		{
			"bufferView":35,
			"componentType":5126,
			"count":120,
			"type":"VEC3"
		},
		{
			"bufferView":36,
			"componentType":5126,
			"count":120,
			"type":"VEC2"
		},
		{
			"bufferView":37,
			"componentType":5126,
			"count":24,
			"max":[
				1,
				1,
				1
			],
			"min":[
				-1,
				-1,
				-1
			],
			"type":"VEC3"
		},
		{
			"bufferView":38,
			"componentType":5126,
			"count":24,
			"type":"VEC3"
		},
		{
			"bufferView":39,
			"componentType":5126,
			"count":24,
			"type":"VEC2"
		},
		{
			"bufferView":40,
			"componentType":5123,
			"count":36,
			"type":"SCALAR"
		},
		{
			"bufferView":41,
			"componentType":5126,
			"count":192,
			"max":[
				0.15000000596046448,
				1,
				0.15000000596046448
			],
			"min":[
				-0.15000000596046448,
				-1,
				-0.15000000596046448
			],
			"type":"VEC3"
		},
		{
			"bufferView":42,
			"componentType":5126,
			"count":192,
			"type":"VEC3"
		},
		{
			"bufferView":43,
			"componentType":5126,
			"count":192,
			"type":"VEC2"
		},
		{
			"bufferView":44,
			"componentType":5126,
			"count":120,
			"max":[
				0.03362926468253136,
				0.2583739757537842,
				0.5047907829284668
			],
			"min":[
				0,
				-0.2575641870498657,
				-0.5475117564201355
			],
			"type":"VEC3"
		},
		{
			"bufferView":45,
			"componentType":5126,
			"count":120,
			"type":"VEC3"
		},
		{
			"bufferView":46,
			"componentType":5126,
			"count":120,
			"type":"VEC2"
		},
		{
			"bufferView":47,
			"componentType":5123,
			"count":330,
			"type":"SCALAR"
		},
		{
			"bufferView":48,
			"componentType":5126,
			"count":192,
			"max":[
				0.15000000596046448,
				1,
				0.15000000596046448
			],
			"min":[
				-0.15000000596046448,
				-1,
				-0.15000000596046448
			],
			"type":"VEC3"
		},
		{
			"bufferView":49,
			"componentType":5126,
			"count":192,
			"type":"VEC3"
		},
		{
			"bufferView":50,
			"componentType":5126,
			"count":192,
			"type":"VEC2"
		},
		{
			"bufferView":51,
			"componentType":5126,
			"count":214,
			"max":[
				0.033629946410655975,
				0.2583739757537842,
				0.5058881640434265
			],
			"min":[
				0,
				-0.2818584144115448,
				-0.5063145160675049
			],
			"type":"VEC3"
		},
		{
			"bufferView":52,
			"componentType":5126,
			"count":214,
			"type":"VEC3"
		},
		{
			"bufferView":53,
			"componentType":5126,
			"count":214,
			"type":"VEC2"
		},
		{
			"bufferView":54,
			"componentType":5123,
			"count":330,
			"type":"SCALAR"
		},
		{
			"bufferView":55,
			"componentType":5126,
			"count":24,
			"max":[
				1,
				1,
				1
			],
			"min":[
				-1,
				-1,
				-1
			],
			"type":"VEC3"
		},
		{
			"bufferView":56,
			"componentType":5126,
			"count":24,
			"type":"VEC3"
		},
		{
			"bufferView":57,
			"componentType":5126,
			"count":24,
			"type":"VEC2"
		},
		{
			"bufferView":58,
			"componentType":5126,
			"count":144,
			"max":[
				0.9993040561676025,
				0.9972408413887024,
				0.21441341936588287
			],
			"min":[
				-1.0118041038513184,
				-1.073478102684021,
				-0.022898465394973755
			],
			"type":"VEC3"
		},
		{
			"bufferView":59,
			"componentType":5126,
			"count":144,
			"type":"VEC3"
		},
		{
			"bufferView":60,
			"componentType":5126,
			"count":144,
			"type":"VEC2"
		},
		{
			"bufferView":61,
			"componentType":5123,
			"count":216,
			"type":"SCALAR"
		},
		{
			"bufferView":62,
			"componentType":5126,
			"count":192,
			"max":[
				0.15000000596046448,
				0.6090614795684814,
				0.15000000596046448
			],
			"min":[
				-0.15000000596046448,
				-1,
				-0.15000000596046448
			],
			"type":"VEC3"
		},
		{
			"bufferView":63,
			"componentType":5126,
			"count":192,
			"type":"VEC3"
		},
		{
			"bufferView":64,
			"componentType":5126,
			"count":192,
			"type":"VEC2"
		},
		{
			"bufferView":65,
			"componentType":5126,
			"count":4,
			"max":[
				1,
				0,
				1
			],
			"min":[
				-1,
				0,
				-1
			],
			"type":"VEC3"
		},
		{
			"bufferView":66,
			"componentType":5126,
			"count":4,
			"type":"VEC3"
		},
		{
			"bufferView":67,
			"componentType":5126,
			"count":4,
			"type":"VEC2"
		},
		{
			"bufferView":68,
			"componentType":5123,
			"count":6,
			"type":"SCALAR"
		}
	],
	"bufferViews":[
		{
			"buffer":0,
			"byteLength":1740,
			"byteOffset":0,
			"target":34962
		},
		{
			"buffer":0,
			"byteLength":1740,
			"byteOffset":1740,
			"target":34962
		},
		{
			"buffer":0,
			"byteLength":1160,
			"byteOffset":3480,
			"target":34962
		},
		{
			"buffer":0,
			"byteLength":768,
			"byteOffset":4640,
			"target":34963
		},
		{
			"buffer":0,
			"byteLength":576,
			"byteOffset":5408,
			"target":34962
		},
		{
			"buffer":0,
			"byteLength":576,
			"byteOffset":5984,
			"target":34962
		},
		{
			"buffer":0,
			"byteLength":384,
			"byteOffset":6560,
			"target":34962
		},
		{
			"buffer":0,
			"byteLength":144,
			"byteOffset":6944,
			"target":34963
		},
		{
			"buffer":0,
			"byteLength":2304,
			"byteOffset":7088,
			"target":34962
		},
		{
			"buffer":0,
			"byteLength":2304,
			"byteOffset":9392,
			"target":34962
		},
		{
			"buffer":0,
			"byteLength":1536,
			"byteOffset":11696,
			"target":34962
		},
		{
			"buffer":0,
			"byteLength":744,
			"byteOffset":13232,
			"target":34963
		},
		{
			"buffer":0,
			"byteLength":384,
			"byteOffset":13976,
			"target":34962
		},
		{
			"buffer":0,
			"byteLength":384,
			"byteOffset":14360,
			"target":34962
		},
		{
			"buffer":0,
			"byteLength":256,
			"byteOffset":14744,
			"target":34962
		},
		{
			"buffer":0,
			"byteLength":180,
			"byteOffset":15000,
			"target":34963
		},
		{
			"buffer":0,
			"byteLength":672,
			"byteOffset":15180,
			"target":34962
		},
		{
			"buffer":0,
			"byteLength":672,
			"byteOffset":15852,
			"target":34962
		},
		{
			"buffer":0,
			"byteLength":448,
			"byteOffset":16524,
			"target":34962
		},
		{
			"buffer":0,
			"byteLength":168,
			"byteOffset":16972,
			"target":34963
		},
		{
			"buffer":0,
			"byteLength":48,
			"byteOffset":17140,
			"target":34962
		},
		{
			"buffer":0,
			"byteLength":48,
			"byteOffset":17188,
			"target":34962
		},
		{
			"buffer":0,
			"byteLength":32,
			"byteOffset":17236,
			"target":34962
		},
		{
			"buffer":0,
			"byteLength":12,
			"byteOffset":17268,
			"target":34963
		},
		{
			"buffer":0,
			"byteLength":2304,
			"byteOffset":17280,
			"target":34962
		},
		{
			"buffer":0,
			"byteLength":2304,
			"byteOffset":19584,
			"target":34962
		},
		{
			"buffer":0,
			"byteLength":1536,
			"byteOffset":21888,
			"target":34962
		},
		{
			"buffer":0,
			"byteLength":1440,
			"byteOffset":23424,
			"target":34962
		},
		{
			"buffer":0,
			"byteLength":1440,
			"byteOffset":24864,
			"target":34962
		},
		{
			"buffer":0,
			"byteLength":960,
			"byteOffset":26304,
			"target":34962
		},
		{
			"buffer":0,
			"byteLength":660,
			"byteOffset":27264,
			"target":34963
		},
		{
			"buffer":0,
			"byteLength":2304,
			"byteOffset":27924,
			"target":34962
		},
		{
			"buffer":0,
			"byteLength":2304,
			"byteOffset":30228,
			"target":34962
		},
		{
			"buffer":0,
			"byteLength":1536,
			"byteOffset":32532,
			"target":34962
		},
		{
			"buffer":0,
			"byteLength":1440,
			"byteOffset":34068,
			"target":34962
		},
		{
			"buffer":0,
			"byteLength":1440,
			"byteOffset":35508,
			"target":34962
		},
		{
			"buffer":0,
			"byteLength":960,
			"byteOffset":36948,
			"target":34962
		},
		{
			"buffer":0,
			"byteLength":288,
			"byteOffset":37908,
			"target":34962
		},
		{
			"buffer":0,
			"byteLength":288,
			"byteOffset":38196,
			"target":34962
		},
		{
			"buffer":0,
			"byteLength":192,
			"byteOffset":38484,
			"target":34962
		},
		{
			"buffer":0,
			"byteLength":72,
			"byteOffset":38676,
			"target":34963
		},
		{
			"buffer":0,
			"byteLength":2304,
			"byteOffset":38748,
			"target":34962
		},
		{
			"buffer":0,
			"byteLength":2304,
			"byteOffset":41052,
			"target":34962
		},
		{
			"buffer":0,
			"byteLength":1536,
			"byteOffset":43356,
			"target":34962
		},
		{
			"buffer":0,
			"byteLength":1440,
			"byteOffset":44892,
			"target":34962
		},
		{
			"buffer":0,
			"byteLength":1440,
			"byteOffset":46332,
			"target":34962
		},
		{
			"buffer":0,
			"byteLength":960,
			"byteOffset":47772,
			"target":34962
		},
		{
			"buffer":0,
			"byteLength":660,
			"byteOffset":48732,
			"target":34963
		},
		{
			"buffer":0,
			"byteLength":2304,
			"byteOffset":49392,
			"target":34962
		},
		{
			"buffer":0,
			"byteLength":2304,
			"byteOffset":51696,
			"target":34962
		},
		{
			"buffer":0,
			"byteLength":1536,
			"byteOffset":54000,
			"target":34962
		},
		{
			"buffer":0,
			"byteLength":2568,
			"byteOffset":55536,
			"target":34962
		},
		{
			"buffer":0,
			"byteLength":2568,
			"byteOffset":58104,
			"target":34962
		},
		{
			"buffer":0,
			"byteLength":1712,
			"byteOffset":60672,
			"target":34962
		},
		{
			"buffer":0,
			"byteLength":660,
			"byteOffset":62384,
			"target":34963
		},
		{
			"buffer":0,
			"byteLength":288,
			"byteOffset":63044,
			"target":34962
		},
		{
			"buffer":0,
			"byteLength":288,
			"byteOffset":63332,
			"target":34962
		},
		{
			"buffer":0,
			"byteLength":192,
			"byteOffset":63620,
			"target":34962
		},
		{
			"buffer":0,
			"byteLength":1728,
			"byteOffset":63812,
			"target":34962
		},
		{
			"buffer":0,
			"byteLength":1728,
			"byteOffset":65540,
			"target":34962
		},
		{
			"buffer":0,
			"byteLength":1152,
			"byteOffset":67268,
			"target":34962
		},
		{
			"buffer":0,
			"byteLength":432,
			"byteOffset":68420,
			"target":34963
		},
		{
			"buffer":0,
			"byteLength":2304,
			"byteOffset":68852,
			"target":34962
		},
		{
			"buffer":0,
			"byteLength":2304,
			"byteOffset":71156,
			"target":34962
		},
		{
			"buffer":0,
			"byteLength":1536,
			"byteOffset":73460,
			"target":34962
		},
		{
			"buffer":0,
			"byteLength":48,
			"byteOffset":74996,
			"target":34962
		},
		{
			"buffer":0,
			"byteLength":48,
			"byteOffset":75044,
			"target":34962
		},
		{
			"buffer":0,
			"byteLength":32,
			"byteOffset":75092,
			"target":34962
		},
		{
			"buffer":0,
			"byteLength":12,
			"byteOffset":75124,
			"target":34963
		}
	],
	"buffers":[
		{
			"byteLength":75136,
			"uri":"Home.bin"
		}
	]
}
