{
	"asset":{
		"generator":"Khronos glTF Blender I/O v4.1.63",
		"version":"2.0"
	},
	"scene":0,
	"scenes":[
		{
			"name":"Scene",
			"nodes":[
				0
			]
		}
	],
	"nodes":[
		{
			"mesh":0,
			"name":"\u7acb\u65b9\u4f53.005",
			"scale":[
				1.2000000476837158,
				0.25999999046325684,
				0.24000000953674316
			],
			"translation":[
				26.469837188720703,
				2.603972911834717,
				-16.36766242980957
			]
		}
	],
	"materials":[
		{
			"doubleSided":true,
			"emissiveFactor":[
				1,
				1,
				1
			],
			"name":"White",
			"pbrMetallicRoughness":{
				"baseColorFactor":[
					0,
					0,
					0,
					1
				]
			}
		}
	],
	"meshes":[
		{
			"name":"\u7acb\u65b9\u4f53.006",
			"primitives":[
				{
					"attributes":{
						"POSITION":0,
						"NORMAL":1,
						"TEXCOORD_0":2
					},
					"indices":3,
					"material":0
				}
			]
		}
	],
	"accessors":[
		{
			"bufferView":0,
			"componentType":5126,
			"count":408,
			"max":[
				5,
				5,
				5
			],
			"min":[
				-6.273314476013184,
				-9.905016899108887,
				-5
			],
			"type":"VEC3"
		},
		{
			"bufferView":1,
			"componentType":5126,
			"count":408,
			"type":"VEC3"
		},
		{
			"bufferView":2,
			"componentType":5126,
			"count":408,
			"type":"VEC2"
		},
		{
			"bufferView":3,
			"componentType":5123,
			"count":780,
			"type":"SCALAR"
		}
	],
	"bufferViews":[
		{
			"buffer":0,
			"byteLength":4896,
			"byteOffset":0,
			"target":34962
		},
		{
			"buffer":0,
			"byteLength":4896,
			"byteOffset":4896,
			"target":34962
		},
		{
			"buffer":0,
			"byteLength":3264,
			"byteOffset":9792,
			"target":34962
		},
		{
			"buffer":0,
			"byteLength":1560,
			"byteOffset":13056,
			"target":34963
		}
	],
	"buffers":[
		{
			"byteLength":14616,
			"uri":"Track.bin"
		}
	]
}
