{
	"asset":{
		"generator":"Khronos glTF Blender I/O v4.1.63",
		"version":"2.0"
	},
	"scene":0,
	"scenes":[
		{
			"name":"Scene",
			"nodes":[
				0,
				1
			]
		}
	],
	"nodes":[
		{
			"mesh":0,
			"name":"\u6b62\u307e\u308c",
			"translation":[
				-1.456772804260254,
				0.045278191566467285,
				-11.344138145446777
			]
		},
		{
			"mesh":1,
			"name":"\u6b62\u307e\u308c.001",
			"rotation":[
				0,
				1,
				0,
				1.6292068494294654e-07
			],
			"translation":[
				0.8852918148040771,
				0.045278191566467285,
				-27.558429718017578
			]
		}
	],
	"materials":[
		{
			"doubleSided":true,
			"emissiveFactor":[
				1,
				1,
				1
			],
			"name":"Black",
			"pbrMetallicRoughness":{
				"baseColorFactor":[
					0,
					0,
					0,
					1
				]
			}
		}
	],
	"meshes":[
		{
			"name":"\u5e73\u9762.009",
			"primitives":[
				{
					"attributes":{
						"POSITION":0,
						"NORMAL":1,
						"TEXCOORD_0":2
					},
					"indices":3,
					"material":0
				}
			]
		},
		{
			"name":"\u5e73\u9762.010",
			"primitives":[
				{
					"attributes":{
						"POSITION":4,
						"NORMAL":5,
						"TEXCOORD_0":6
					},
					"indices":3,
					"material":0
				}
			]
		}
	],
	"accessors":[
		{
			"bufferView":0,
			"componentType":5126,
			"count":127,
			"max":[
				0.4085351824760437,
				0.0021592427510768175,
				7.087209701538086
			],
			"min":[
				-0.444130003452301,
				-0.009786046110093594,
				-1.25
			],
			"type":"VEC3"
		},
		{
			"bufferView":1,
			"componentType":5126,
			"count":127,
			"type":"VEC3"
		},
		{
			"bufferView":2,
			"componentType":5126,
			"count":127,
			"type":"VEC2"
		},
		{
			"bufferView":3,
			"componentType":5123,
			"count":291,
			"type":"SCALAR"
		},
		{
			"bufferView":4,
			"componentType":5126,
			"count":127,
			"max":[
				0.4085351824760437,
				0.0021592427510768175,
				7.087209701538086
			],
			"min":[
				-0.444130003452301,
				-0.009786046110093594,
				-1.25
			],
			"type":"VEC3"
		},
		{
			"bufferView":5,
			"componentType":5126,
			"count":127,
			"type":"VEC3"
		},
		{
			"bufferView":6,
			"componentType":5126,
			"count":127,
			"type":"VEC2"
		}
	],
	"bufferViews":[
		{
			"buffer":0,
			"byteLength":1524,
			"byteOffset":0,
			"target":34962
		},
		{
			"buffer":0,
			"byteLength":1524,
			"byteOffset":1524,
			"target":34962
		},
		{
			"buffer":0,
			"byteLength":1016,
			"byteOffset":3048,
			"target":34962
		},
		{
			"buffer":0,
			"byteLength":582,
			"byteOffset":4064,
			"target":34963
		},
		{
			"buffer":0,
			"byteLength":1524,
			"byteOffset":4648,
			"target":34962
		},
		{
			"buffer":0,
			"byteLength":1524,
			"byteOffset":6172,
			"target":34962
		},
		{
			"buffer":0,
			"byteLength":1016,
			"byteOffset":7696,
			"target":34962
		}
	],
	"buffers":[
		{
			"byteLength":8712,
			"uri":"Stop.bin"
		}
	]
}
